<svg width="52" height="13" viewBox="0 0 52 13" fill="none" xmlns="http://www.w3.org/2000/svg">
<path fill-rule="evenodd" clip-rule="evenodd" d="M0.825195 9.52461C0.825195 9.22084 1.07143 8.97461 1.37519 8.97461H4.40017C4.70393 8.97461 4.95017 9.22084 4.95017 9.52461C4.95017 9.82837 4.70393 10.0746 4.40017 10.0746H1.37519C1.07143 10.0746 0.825195 9.82837 0.825195 9.52461Z" fill="#2EF2FF"/>
<path fill-rule="evenodd" clip-rule="evenodd" d="M0 6.50019C0 6.19643 0.246233 5.9502 0.549996 5.9502H3.02498C3.32874 5.9502 3.57497 6.19643 3.57497 6.50019C3.57497 6.80395 3.32874 7.05019 3.02498 7.05019H0.549996C0.246233 7.05019 0 6.80395 0 6.50019Z" fill="#2EF2FF"/>
<path fill-rule="evenodd" clip-rule="evenodd" d="M1.1001 3.4748C1.1001 3.17104 1.34633 2.9248 1.65009 2.9248H4.40007C4.70384 2.9248 4.95007 3.17104 4.95007 3.4748C4.95007 3.77856 4.70384 4.0248 4.40007 4.0248H1.65009C1.34633 4.0248 1.1001 3.77856 1.1001 3.4748Z" fill="#2EF2FF"/>
<path fill-rule="evenodd" clip-rule="evenodd" d="M9.00197 1.03854C9.23688 1.13143 9.37833 1.37233 9.34495 1.62274L8.878 5.12501H10.9697C10.9761 5.12501 10.9824 5.12501 10.9887 5.12501C11.1102 5.12501 11.236 5.12495 11.34 5.13447C11.4422 5.14382 11.6282 5.16856 11.7945 5.29693C11.9884 5.44659 12.1058 5.67467 12.1148 5.91942C12.1226 6.12935 12.0346 6.29512 11.9828 6.38372C11.9302 6.47381 11.857 6.57622 11.7864 6.675C11.7827 6.68017 11.779 6.68529 11.7754 6.69046L8.14733 11.7697C8.00054 11.9752 7.73258 12.0543 7.49762 11.9615C7.26272 11.8686 7.12126 11.6277 7.15465 11.3773L7.62159 7.87498H5.52985C5.52352 7.87498 5.5172 7.87498 5.51087 7.87498C5.38943 7.87504 5.2636 7.87504 5.15965 7.86558C5.0574 7.85623 4.87139 7.83142 4.70513 7.70311C4.5112 7.55346 4.39383 7.32537 4.38476 7.08057C4.377 6.87069 4.46495 6.70492 4.51676 6.61626C4.56945 6.52617 4.6426 6.42382 4.71321 6.32504C4.7169 6.31987 4.72058 6.3147 4.72421 6.30959L8.35226 1.23037C8.49906 1.02484 8.76701 0.945696 9.00197 1.03854Z" fill="#4761FF"/>
<path d="M16.8418 6.50195V9.38477C16.8418 9.50586 16.8691 9.59961 16.9238 9.66602C16.9824 9.72852 17.0801 9.77734 17.2168 9.8125V10H14.7207V9.8125C14.8613 9.77344 14.959 9.72266 15.0137 9.66016C15.0684 9.59766 15.0957 9.50586 15.0957 9.38477V2.61719C15.0957 2.49609 15.0684 2.4043 15.0137 2.3418C14.959 2.2793 14.8613 2.22852 14.7207 2.18945V2.00195H21.7988C21.916 2.00195 22.0059 1.97461 22.0684 1.91992C22.1309 1.86523 22.1816 1.76563 22.2207 1.62109H22.4082V3.68945H22.2207C22.1816 3.54883 22.1309 3.45313 22.0684 3.40234C22.0059 3.34766 21.916 3.32031 21.7988 3.32031H16.8418V5.23047H20.082C20.2031 5.23047 20.2949 5.20312 20.3574 5.14844C20.4199 5.08984 20.4707 4.99023 20.5098 4.84961H20.6973V6.87109H20.5098C20.4707 6.73438 20.4199 6.63867 20.3574 6.58398C20.2949 6.5293 20.2031 6.50195 20.082 6.50195H16.8418ZM24.89 8.81055H28.5638C28.6888 8.81055 28.7826 8.7832 28.8451 8.72852C28.9076 8.67383 28.9603 8.57422 29.0033 8.42969H29.1615V10.375H29.0033C28.9642 10.2344 28.9115 10.1367 28.8451 10.082C28.7826 10.0273 28.6888 10 28.5638 10H22.9447V9.83594C23.0814 9.80078 23.1771 9.75 23.2318 9.68359C23.2904 9.61719 23.3197 9.52344 23.3197 9.40234V4.03516C23.3197 3.91406 23.2923 3.82227 23.2377 3.75977C23.183 3.69727 23.0853 3.64453 22.9447 3.60156V3.4375H25.265V3.60156C25.1244 3.64063 25.0267 3.69336 24.972 3.75977C24.9173 3.82227 24.89 3.91406 24.89 4.03516V8.81055ZM32.4343 7.12305V9.40234C32.4343 9.52344 32.4616 9.61719 32.5163 9.68359C32.571 9.74609 32.6687 9.79883 32.8093 9.8418V10H30.489V9.8418C30.6296 9.80273 30.7273 9.75195 30.782 9.68945C30.8366 9.62305 30.864 9.52734 30.864 9.40234V7.12305L28.9187 4.44531C28.6999 4.14453 28.5241 3.93945 28.3913 3.83008C28.2624 3.7168 28.1081 3.64063 27.9284 3.60156V3.4375H30.8816V3.60156C30.6277 3.66797 30.5007 3.78711 30.5007 3.95898C30.5007 4.04492 30.5925 4.2168 30.7761 4.47461L31.7312 5.79883L32.6628 4.47461C32.8464 4.21289 32.9382 4.03906 32.9382 3.95312C32.9382 3.78906 32.8132 3.67188 32.5632 3.60156L32.5573 3.4375H35.3698V3.60156C35.1902 3.64063 35.0339 3.7168 34.9011 3.83008C34.7722 3.93945 34.5984 4.14453 34.3796 4.44531L32.4343 7.12305ZM38.6075 3.29688C39.6505 3.29688 40.5196 3.5625 41.2149 4.09375C42.047 4.73438 42.463 5.62695 42.463 6.77148C42.463 7.8457 42.047 8.70312 41.2149 9.34375C40.5274 9.875 39.6622 10.1406 38.6192 10.1406C37.5763 10.1406 36.711 9.875 36.0235 9.34375C35.1876 8.70312 34.7696 7.82812 34.7696 6.71875C34.7696 5.59766 35.1876 4.72266 36.0235 4.09375C36.7149 3.57422 37.5763 3.30859 38.6075 3.29688ZM38.6134 4.53906C37.9376 4.53906 37.3868 4.75586 36.961 5.18945C36.5665 5.5957 36.3692 6.10547 36.3692 6.71875C36.3692 7.32812 36.5665 7.83594 36.961 8.24219C37.3868 8.67969 37.9395 8.89844 38.6192 8.89844C39.295 8.89844 39.8458 8.67969 40.2716 8.24219C40.6661 7.83984 40.8634 7.3418 40.8634 6.74805C40.8634 6.10352 40.6661 5.58398 40.2716 5.18945C39.8419 4.76367 39.2891 4.54688 38.6134 4.53906ZM44.9155 5.67578V9.40234C44.9155 9.52344 44.9428 9.61719 44.9975 9.68359C45.0561 9.75 45.1537 9.80273 45.2905 9.8418V10H43.1108V9.83594C43.2475 9.80078 43.3432 9.75 43.3979 9.68359C43.4565 9.61719 43.4858 9.52344 43.4858 9.40234V4.03516C43.4858 3.91406 43.4584 3.82227 43.4037 3.75977C43.3491 3.69727 43.2514 3.64453 43.1108 3.60156V3.4375H45.6303V3.60156C45.4584 3.64453 45.3725 3.7207 45.3725 3.83008C45.3725 3.92383 45.435 4.0332 45.56 4.1582L49.0756 7.65039V4.03516C49.0756 3.91406 49.0483 3.82227 48.9936 3.75977C48.9389 3.69336 48.8412 3.64063 48.7006 3.60156V3.4375H50.8803V3.60156C50.7397 3.64063 50.642 3.69336 50.5873 3.75977C50.5327 3.82227 50.5053 3.91406 50.5053 4.03516V9.40234C50.5053 9.52344 50.5327 9.61719 50.5873 9.68359C50.642 9.74609 50.7397 9.79883 50.8803 9.8418V10H48.5307V9.8418C48.7026 9.80664 48.7885 9.73438 48.7885 9.625C48.7885 9.57031 48.7651 9.51367 48.7182 9.45508C48.6713 9.39648 48.5639 9.28125 48.3959 9.10938L44.9155 5.67578Z" fill="white"/>
</svg>
